<mxfile host="app.diagrams.net" modified="2021-01-09T12:29:35.924Z" agent="5.0 (Macintosh; Intel Mac OS X 10_15_7) AppleWebKit/537.36 (KHTML, like Gecko) Chrome/87.0.4280.141 Safari/537.36" etag="0Ey5btpegnH1774uohzR" version="14.1.8" type="github" pages="4">
  <diagram name="Page-1" id="03018318-947c-dd8e-b7a3-06fadd420f32">
    <mxGraphModel dx="1639" dy="876" grid="1" gridSize="10" guides="1" tooltips="1" connect="1" arrows="1" fold="1" page="1" pageScale="1" pageWidth="1100" pageHeight="850" background="#ffffff" math="0" shadow="0">
      <root>
        <mxCell id="0" />
        <mxCell id="1" parent="0" />
        <mxCell id="677b7b8949515195-2" value="UI" style="whiteSpace=wrap;html=1;rounded=0;shadow=0;labelBackgroundColor=none;strokeWidth=1;fontFamily=Verdana;fontSize=28;align=center;comic=1;" parent="1" vertex="1">
          <mxGeometry x="460" y="50" width="190" height="50" as="geometry" />
        </mxCell>
        <mxCell id="677b7b8949515195-9" value="" style="line;strokeWidth=1;html=1;rounded=0;shadow=0;labelBackgroundColor=none;fillColor=none;fontFamily=Verdana;fontSize=14;fontColor=#000000;align=center;comic=1;" parent="1" vertex="1">
          <mxGeometry x="20" y="140" width="1060" height="10" as="geometry" />
        </mxCell>
        <mxCell id="677b7b8949515195-10" value="" style="whiteSpace=wrap;html=1;rounded=0;shadow=0;labelBackgroundColor=none;strokeWidth=1;fillColor=none;fontFamily=Verdana;fontSize=12;align=center;comic=1;" parent="1" vertex="1">
          <mxGeometry x="30" y="160" width="1040" height="50" as="geometry" />
        </mxCell>
        <mxCell id="677b7b8949515195-15" value="&lt;div style=&quot;text-align: justify&quot;&gt;&lt;span style=&quot;color: rgba(0 , 0 , 0 , 0) ; font-family: monospace ; font-size: 0px&quot;&gt;%3CmxGraphModel%3E%3Croot%3E%3CmxCell%20id%3D%220%22%2F%3E%3CmxCell%20id%3D%221%22%20parent%3D%220%22%2F%3E%3CmxCell%20id%3D%222%22%20value%3D%22Image%22%20style%3D%22text%3Bhtml%3D1%3BstrokeColor%3Dnone%3BfillColor%3Dnone%3Balign%3Dcenter%3BverticalAlign%3Dmiddle%3BwhiteSpace%3Dwrap%3Brounded%3D0%3BfontSize%3D21%3B%22%20vertex%3D%221%22%20parent%3D%221%22%3E%3CmxGeometry%20x%3D%22190%22%20y%3D%22230%22%20width%3D%2240%22%20height%3D%2220%22%20as%3D%22geometry%22%2F%3E%3C%2FmxCell%3E%3C%2Froot%3E%3C%2FmxGraphModel%3E&lt;/span&gt;&lt;span&gt;&lt;br&gt;&lt;/span&gt;&lt;/div&gt;&lt;div style=&quot;text-align: justify&quot;&gt;&lt;span&gt;&lt;br&gt;&lt;/span&gt;&lt;/div&gt;&lt;div style=&quot;text-align: justify&quot;&gt;&lt;span&gt;&lt;br&gt;&lt;/span&gt;&lt;/div&gt;&lt;div style=&quot;text-align: justify&quot;&gt;&lt;span&gt;&lt;br&gt;&lt;/span&gt;&lt;/div&gt;&lt;div style=&quot;text-align: justify&quot;&gt;&lt;span&gt;&lt;br&gt;&lt;/span&gt;&lt;/div&gt;&lt;div style=&quot;text-align: justify&quot;&gt;&lt;span&gt;Lorem ipsum dolor sit amet, consectetur adipisicing elit, sed do eiusmod tempor incididunt ut labore et dolore magna aliqua. Ut enim ad minim veniam, quis nostrud exercitation ullamco laboris nisi ut aliquip ex ea commodo consequat. Duis aute irure dolor in reprehenderit in voluptate velit esse cillum dolore eu fugiat nulla pariatur. Excepteur sint occaecat cupidatat non proident, sunt in culpa qui officia deserunt mollit anim id est laborum.&lt;/span&gt;&lt;/div&gt;" style="whiteSpace=wrap;html=1;rounded=0;shadow=0;labelBackgroundColor=none;strokeWidth=1;fillColor=none;fontFamily=Verdana;fontSize=12;align=center;verticalAlign=top;spacing=10;comic=1;" parent="1" vertex="1">
          <mxGeometry x="250" y="640" width="580" height="200" as="geometry" />
        </mxCell>
        <mxCell id="677b7b8949515195-16" value="" style="verticalLabelPosition=bottom;shadow=0;dashed=0;align=center;html=1;verticalAlign=top;strokeWidth=1;shape=mxgraph.mockup.graphics.simpleIcon;strokeColor=#999999;rounded=0;labelBackgroundColor=none;fontFamily=Verdana;fontSize=14;fontColor=#000000;comic=1;" parent="1" vertex="1">
          <mxGeometry x="250" y="230" width="580" height="400" as="geometry" />
        </mxCell>
        <mxCell id="677b7b8949515195-26" value="" style="whiteSpace=wrap;html=1;rounded=0;shadow=0;labelBackgroundColor=none;strokeWidth=1;fillColor=none;fontFamily=Verdana;fontSize=12;align=center;comic=1;" parent="1" vertex="1">
          <mxGeometry x="840" y="640" width="230" height="200" as="geometry" />
        </mxCell>
        <mxCell id="677b7b8949515195-42" value="External Links" style="text;html=1;points=[];align=left;verticalAlign=top;spacingTop=-4;fontSize=14;fontFamily=Verdana" parent="1" vertex="1">
          <mxGeometry x="860" y="653" width="170" height="20" as="geometry" />
        </mxCell>
        <mxCell id="4h4jctPzliOnnjx4pKhY-1" value="Image" style="text;html=1;strokeColor=none;fillColor=none;align=center;verticalAlign=middle;whiteSpace=wrap;rounded=0;fontSize=21;" vertex="1" parent="1">
          <mxGeometry x="190" y="230" width="40" height="20" as="geometry" />
        </mxCell>
        <mxCell id="4h4jctPzliOnnjx4pKhY-2" value="&lt;font style=&quot;font-size: 15px&quot;&gt;Next&lt;/font&gt;" style="strokeWidth=1;shadow=0;dashed=0;align=center;html=1;shape=mxgraph.mockup.buttons.button;strokeColor=#666666;fontColor=#ffffff;mainText=;buttonStyle=round;fontSize=17;fontStyle=1;fillColor=#008cff;whiteSpace=wrap;" vertex="1" parent="1">
          <mxGeometry x="500" y="580" width="60" height="30" as="geometry" />
        </mxCell>
        <mxCell id="4h4jctPzliOnnjx4pKhY-8" value="Insightful Object.prop" style="text;html=1;strokeColor=none;fillColor=none;align=center;verticalAlign=middle;whiteSpace=wrap;rounded=0;fontSize=21;" vertex="1" parent="1">
          <mxGeometry x="240" y="653" width="150" height="40" as="geometry" />
        </mxCell>
      </root>
    </mxGraphModel>
  </diagram>
  <diagram id="zmGmdxGS78DfiWs6E3hG" name="Page-2">
    <mxGraphModel dx="1639" dy="876" grid="1" gridSize="10" guides="1" tooltips="1" connect="1" arrows="1" fold="1" page="1" pageScale="1" pageWidth="827" pageHeight="1169" math="0" shadow="0">
      <root>
        <mxCell id="OkzMb20YwTvmT8Oa3cdr-0" />
        <mxCell id="OkzMb20YwTvmT8Oa3cdr-1" parent="OkzMb20YwTvmT8Oa3cdr-0" />
        <mxCell id="yHESbApCZMD7SywobxEk-0" value="" style="whiteSpace=wrap;html=1;rounded=0;shadow=0;labelBackgroundColor=none;strokeColor=#000000;strokeWidth=1;fillColor=none;fontFamily=Verdana;fontSize=12;fontColor=#000000;align=center;comic=1;" vertex="1" parent="OkzMb20YwTvmT8Oa3cdr-1">
          <mxGeometry x="100" y="120" width="1470" height="810" as="geometry" />
        </mxCell>
        <mxCell id="cEJlTuyYRtpYNmx6dZ6T-14" value="" style="whiteSpace=wrap;html=1;aspect=fixed;strokeWidth=4;fontSize=24;" vertex="1" parent="OkzMb20YwTvmT8Oa3cdr-1">
          <mxGeometry x="530" y="650" width="140" height="140" as="geometry" />
        </mxCell>
        <mxCell id="cEJlTuyYRtpYNmx6dZ6T-15" value="" style="whiteSpace=wrap;html=1;aspect=fixed;strokeWidth=4;fontSize=24;" vertex="1" parent="OkzMb20YwTvmT8Oa3cdr-1">
          <mxGeometry x="740" y="650" width="140" height="140" as="geometry" />
        </mxCell>
        <mxCell id="k2bR7vD0tmslMvNT1PfW-0" value="" style="rounded=1;whiteSpace=wrap;html=1;strokeWidth=4;fontSize=21;" vertex="1" parent="OkzMb20YwTvmT8Oa3cdr-1">
          <mxGeometry x="155" y="160" width="1335" height="720" as="geometry" />
        </mxCell>
        <mxCell id="cEJlTuyYRtpYNmx6dZ6T-4" value="" style="whiteSpace=wrap;html=1;aspect=fixed;strokeWidth=4;fontSize=24;verticalAlign=top;" vertex="1" parent="OkzMb20YwTvmT8Oa3cdr-1">
          <mxGeometry x="230" y="195" width="650" height="650" as="geometry" />
        </mxCell>
        <mxCell id="cEJlTuyYRtpYNmx6dZ6T-3" value="PhotoContainer" style="text;html=1;strokeColor=none;fillColor=none;align=center;verticalAlign=middle;whiteSpace=wrap;rounded=0;strokeWidth=4;fontStyle=1;fontSize=24;" vertex="1" parent="OkzMb20YwTvmT8Oa3cdr-1">
          <mxGeometry x="280" y="140" width="150" height="70" as="geometry" />
        </mxCell>
        <mxCell id="cEJlTuyYRtpYNmx6dZ6T-5" value="PhotoGrid" style="text;html=1;strokeColor=none;fillColor=none;align=center;verticalAlign=middle;whiteSpace=wrap;rounded=0;fontSize=24;fontStyle=1" vertex="1" parent="OkzMb20YwTvmT8Oa3cdr-1">
          <mxGeometry x="300" y="210" width="40" height="20" as="geometry" />
        </mxCell>
        <mxCell id="cEJlTuyYRtpYNmx6dZ6T-9" value="" style="whiteSpace=wrap;html=1;aspect=fixed;strokeWidth=4;fontSize=24;" vertex="1" parent="OkzMb20YwTvmT8Oa3cdr-1">
          <mxGeometry x="264" y="250" width="140" height="140" as="geometry" />
        </mxCell>
        <mxCell id="k2bR7vD0tmslMvNT1PfW-2" value="" style="whiteSpace=wrap;html=1;aspect=fixed;strokeWidth=4;fontSize=24;" vertex="1" parent="OkzMb20YwTvmT8Oa3cdr-1">
          <mxGeometry x="264" y="440" width="140" height="140" as="geometry" />
        </mxCell>
        <mxCell id="k2bR7vD0tmslMvNT1PfW-3" value="" style="whiteSpace=wrap;html=1;aspect=fixed;strokeWidth=4;fontSize=24;" vertex="1" parent="OkzMb20YwTvmT8Oa3cdr-1">
          <mxGeometry x="264" y="620" width="140" height="140" as="geometry" />
        </mxCell>
        <mxCell id="k2bR7vD0tmslMvNT1PfW-4" value="" style="whiteSpace=wrap;html=1;aspect=fixed;strokeWidth=4;fontSize=24;" vertex="1" parent="OkzMb20YwTvmT8Oa3cdr-1">
          <mxGeometry x="480" y="250" width="140" height="140" as="geometry" />
        </mxCell>
        <mxCell id="k2bR7vD0tmslMvNT1PfW-5" value="" style="whiteSpace=wrap;html=1;aspect=fixed;strokeWidth=4;fontSize=24;" vertex="1" parent="OkzMb20YwTvmT8Oa3cdr-1">
          <mxGeometry x="690" y="250" width="140" height="140" as="geometry" />
        </mxCell>
        <mxCell id="k2bR7vD0tmslMvNT1PfW-6" value="" style="whiteSpace=wrap;html=1;aspect=fixed;strokeWidth=4;fontSize=24;" vertex="1" parent="OkzMb20YwTvmT8Oa3cdr-1">
          <mxGeometry x="485" y="440" width="140" height="140" as="geometry" />
        </mxCell>
        <mxCell id="k2bR7vD0tmslMvNT1PfW-7" value="" style="whiteSpace=wrap;html=1;aspect=fixed;strokeWidth=4;fontSize=24;" vertex="1" parent="OkzMb20YwTvmT8Oa3cdr-1">
          <mxGeometry x="687" y="440" width="140" height="140" as="geometry" />
        </mxCell>
        <mxCell id="k2bR7vD0tmslMvNT1PfW-8" value="" style="whiteSpace=wrap;html=1;aspect=fixed;strokeWidth=4;fontSize=24;" vertex="1" parent="OkzMb20YwTvmT8Oa3cdr-1">
          <mxGeometry x="485" y="620" width="140" height="140" as="geometry" />
        </mxCell>
        <mxCell id="k2bR7vD0tmslMvNT1PfW-9" value="" style="whiteSpace=wrap;html=1;aspect=fixed;strokeWidth=4;fontSize=24;" vertex="1" parent="OkzMb20YwTvmT8Oa3cdr-1">
          <mxGeometry x="687" y="620" width="140" height="140" as="geometry" />
        </mxCell>
        <mxCell id="k2bR7vD0tmslMvNT1PfW-10" value="" style="rounded=0;whiteSpace=wrap;html=1;strokeWidth=4;fontSize=21;" vertex="1" parent="OkzMb20YwTvmT8Oa3cdr-1">
          <mxGeometry x="940" y="195" width="500" height="195" as="geometry" />
        </mxCell>
        <mxCell id="k2bR7vD0tmslMvNT1PfW-11" value="Photo/Location Picker" style="text;html=1;strokeColor=none;fillColor=none;align=center;verticalAlign=middle;whiteSpace=wrap;rounded=0;fontSize=21;fontStyle=1" vertex="1" parent="OkzMb20YwTvmT8Oa3cdr-1">
          <mxGeometry x="1010" y="220" width="40" height="20" as="geometry" />
        </mxCell>
        <mxCell id="k2bR7vD0tmslMvNT1PfW-12" value="Option 1" style="strokeWidth=1;shadow=0;dashed=0;align=center;html=1;shape=mxgraph.mockup.forms.comboBox;strokeColor=#999999;fillColor=#ddeeff;align=left;fillColor2=#aaddff;mainText=;fontColor=#666666;fontSize=17;spacingLeft=3;" vertex="1" parent="OkzMb20YwTvmT8Oa3cdr-1">
          <mxGeometry x="970" y="270" width="150" height="30" as="geometry" />
        </mxCell>
        <mxCell id="k2bR7vD0tmslMvNT1PfW-13" value="Option 1" style="strokeWidth=1;shadow=0;dashed=0;align=center;html=1;shape=mxgraph.mockup.forms.comboBox;strokeColor=#999999;fillColor=#ddeeff;align=left;fillColor2=#aaddff;mainText=;fontColor=#666666;fontSize=17;spacingLeft=3;" vertex="1" parent="OkzMb20YwTvmT8Oa3cdr-1">
          <mxGeometry x="1210" y="270" width="150" height="30" as="geometry" />
        </mxCell>
        <mxCell id="A5nRyX96cypssp2GpTWE-0" value="Photo" style="text;html=1;strokeColor=none;fillColor=none;align=center;verticalAlign=middle;whiteSpace=wrap;rounded=0;fontSize=19;" vertex="1" parent="OkzMb20YwTvmT8Oa3cdr-1">
          <mxGeometry x="280" y="260" width="40" height="20" as="geometry" />
        </mxCell>
      </root>
    </mxGraphModel>
  </diagram>
  <diagram id="eBFzqkjWwGh5Mb0Sj05I" name="Page-4">
    <mxGraphModel dx="1639" dy="876" grid="1" gridSize="10" guides="1" tooltips="1" connect="1" arrows="1" fold="1" page="1" pageScale="1" pageWidth="827" pageHeight="1169" math="0" shadow="0">
      <root>
        <mxCell id="hxcBPby-BTjeihng6vHj-0" />
        <mxCell id="hxcBPby-BTjeihng6vHj-1" parent="hxcBPby-BTjeihng6vHj-0" />
        <mxCell id="J9Jd6XH2ds8hbBK8N2th-0" value="" style="rounded=0;whiteSpace=wrap;html=1;strokeWidth=4;fontSize=21;fillColor=#f8cecc;strokeColor=#b85450;" vertex="1" parent="hxcBPby-BTjeihng6vHj-1">
          <mxGeometry x="290" y="60" width="270" height="90" as="geometry" />
        </mxCell>
        <mxCell id="J9Jd6XH2ds8hbBK8N2th-1" value="Photo Container" style="text;html=1;strokeColor=none;fillColor=none;align=center;verticalAlign=middle;whiteSpace=wrap;rounded=0;fontSize=21;" vertex="1" parent="hxcBPby-BTjeihng6vHj-1">
          <mxGeometry x="405" y="20" width="40" height="20" as="geometry" />
        </mxCell>
        <mxCell id="qpttxDpWk19ikilLY3t_-0" value="State: Photo Data" style="text;html=1;strokeColor=none;fillColor=none;align=center;verticalAlign=middle;whiteSpace=wrap;rounded=0;fontSize=19;" vertex="1" parent="hxcBPby-BTjeihng6vHj-1">
          <mxGeometry x="290" y="70" width="170" height="30" as="geometry" />
        </mxCell>
        <mxCell id="qpttxDpWk19ikilLY3t_-3" value="Props: None" style="text;html=1;strokeColor=none;fillColor=none;align=center;verticalAlign=middle;whiteSpace=wrap;rounded=0;fontSize=19;" vertex="1" parent="hxcBPby-BTjeihng6vHj-1">
          <mxGeometry x="270" y="110" width="170" height="20" as="geometry" />
        </mxCell>
        <mxCell id="qpttxDpWk19ikilLY3t_-4" value="" style="endArrow=classic;html=1;fontSize=19;exitX=0.5;exitY=1;exitDx=0;exitDy=0;" edge="1" parent="hxcBPby-BTjeihng6vHj-1" source="J9Jd6XH2ds8hbBK8N2th-0">
          <mxGeometry width="50" height="50" relative="1" as="geometry">
            <mxPoint x="420" y="300" as="sourcePoint" />
            <mxPoint x="590" y="230" as="targetPoint" />
          </mxGeometry>
        </mxCell>
        <mxCell id="qpttxDpWk19ikilLY3t_-5" value="" style="endArrow=classic;html=1;fontSize=19;" edge="1" parent="hxcBPby-BTjeihng6vHj-1">
          <mxGeometry width="50" height="50" relative="1" as="geometry">
            <mxPoint x="430" y="150" as="sourcePoint" />
            <mxPoint x="270" y="230" as="targetPoint" />
          </mxGeometry>
        </mxCell>
        <mxCell id="qpttxDpWk19ikilLY3t_-6" value="" style="rounded=0;whiteSpace=wrap;html=1;strokeWidth=4;fontSize=21;fillColor=#dae8fc;strokeColor=#6c8ebf;" vertex="1" parent="hxcBPby-BTjeihng6vHj-1">
          <mxGeometry x="100" y="270" width="270" height="90" as="geometry" />
        </mxCell>
        <mxCell id="qpttxDpWk19ikilLY3t_-7" value="" style="rounded=0;whiteSpace=wrap;html=1;strokeWidth=4;fontSize=21;fillColor=#e1d5e7;strokeColor=#9673a6;" vertex="1" parent="hxcBPby-BTjeihng6vHj-1">
          <mxGeometry x="500" y="270" width="270" height="90" as="geometry" />
        </mxCell>
        <mxCell id="kuNKKmNybLy-PxvKEmGZ-0" value="State:" style="text;html=1;strokeColor=none;fillColor=none;align=center;verticalAlign=middle;whiteSpace=wrap;rounded=0;fontSize=19;" vertex="1" parent="hxcBPby-BTjeihng6vHj-1">
          <mxGeometry x="90" y="280" width="170" height="30" as="geometry" />
        </mxCell>
        <mxCell id="kuNKKmNybLy-PxvKEmGZ-2" value="Props: Photo Data" style="text;html=1;strokeColor=none;fillColor=none;align=center;verticalAlign=middle;whiteSpace=wrap;rounded=0;fontSize=19;" vertex="1" parent="hxcBPby-BTjeihng6vHj-1">
          <mxGeometry x="140" y="320" width="170" height="20" as="geometry" />
        </mxCell>
        <mxCell id="4BSFlWtt9-oHdBHwx7mr-0" value="Photo Grid" style="text;html=1;strokeColor=none;fillColor=none;align=center;verticalAlign=middle;whiteSpace=wrap;rounded=0;fontSize=19;" vertex="1" parent="hxcBPby-BTjeihng6vHj-1">
          <mxGeometry x="120" y="240" width="120" height="20" as="geometry" />
        </mxCell>
        <mxCell id="rVcON3iX7BGQ9CVVPyWA-1" value="Location PIcker" style="text;html=1;strokeColor=none;fillColor=none;align=center;verticalAlign=middle;whiteSpace=wrap;rounded=0;fontSize=19;" vertex="1" parent="hxcBPby-BTjeihng6vHj-1">
          <mxGeometry x="480" y="240" width="170" height="20" as="geometry" />
        </mxCell>
        <mxCell id="AIoTfkTDQRmSgLCEQaAU-0" value="" style="rounded=0;whiteSpace=wrap;html=1;strokeWidth=4;fontSize=21;fillColor=#ffe6cc;strokeColor=#d79b00;" vertex="1" parent="hxcBPby-BTjeihng6vHj-1">
          <mxGeometry x="100" y="480" width="270" height="90" as="geometry" />
        </mxCell>
        <mxCell id="AIoTfkTDQRmSgLCEQaAU-1" value="" style="endArrow=classic;html=1;fontSize=19;" edge="1" parent="hxcBPby-BTjeihng6vHj-1">
          <mxGeometry width="50" height="50" relative="1" as="geometry">
            <mxPoint x="220" y="370" as="sourcePoint" />
            <mxPoint x="220" y="460" as="targetPoint" />
          </mxGeometry>
        </mxCell>
        <mxCell id="AIoTfkTDQRmSgLCEQaAU-2" value="State: None" style="text;html=1;strokeColor=none;fillColor=none;align=center;verticalAlign=middle;whiteSpace=wrap;rounded=0;fontSize=19;" vertex="1" parent="hxcBPby-BTjeihng6vHj-1">
          <mxGeometry x="140" y="490" width="170" height="30" as="geometry" />
        </mxCell>
        <mxCell id="AIoTfkTDQRmSgLCEQaAU-3" value="Props: Photo Object" style="text;html=1;strokeColor=none;fillColor=none;align=center;verticalAlign=middle;whiteSpace=wrap;rounded=0;fontSize=19;" vertex="1" parent="hxcBPby-BTjeihng6vHj-1">
          <mxGeometry x="140" y="530" width="200" height="30" as="geometry" />
        </mxCell>
      </root>
    </mxGraphModel>
  </diagram>
  <diagram id="HexjTDmmfdZT9CCn-_94" name="Page-3">
    <mxGraphModel dx="1639" dy="876" grid="1" gridSize="10" guides="1" tooltips="1" connect="1" arrows="1" fold="1" page="1" pageScale="1" pageWidth="827" pageHeight="1169" math="0" shadow="0">
      <root>
        <mxCell id="JRbCmGWKsJUmuZrnRMVa-0" />
        <mxCell id="JRbCmGWKsJUmuZrnRMVa-1" parent="JRbCmGWKsJUmuZrnRMVa-0" />
      </root>
    </mxGraphModel>
  </diagram>
</mxfile>
